<mxfile host="app.diagrams.net" modified="2023-09-18T20:35:42.870Z" agent="Mozilla/5.0 (Macintosh; Intel Mac OS X 10.15; rv:109.0) Gecko/20100101 Firefox/117.0" etag="_RSOOaDkzJhUyY7VSQhS" version="21.7.5" type="device">
  <diagram name="Page-1" id="vNufQBMDK-u4iyTvzF39">
    <mxGraphModel dx="478" dy="285" grid="0" gridSize="10" guides="1" tooltips="1" connect="1" arrows="1" fold="1" page="1" pageScale="1" pageWidth="850" pageHeight="1100" math="0" shadow="0">
      <root>
        <mxCell id="0" />
        <mxCell id="1" parent="0" />
        <mxCell id="oLVpAVas0B8bVnGjlrTH-1" value="" style="endArrow=none;html=1;rounded=0;" edge="1" parent="1">
          <mxGeometry width="50" height="50" relative="1" as="geometry">
            <mxPoint x="323" y="290" as="sourcePoint" />
            <mxPoint x="403" y="290" as="targetPoint" />
          </mxGeometry>
        </mxCell>
        <mxCell id="oLVpAVas0B8bVnGjlrTH-2" value="" style="endArrow=none;html=1;rounded=0;" edge="1" parent="1">
          <mxGeometry width="50" height="50" relative="1" as="geometry">
            <mxPoint x="425.5" y="290" as="sourcePoint" />
            <mxPoint x="485.5" y="290" as="targetPoint" />
          </mxGeometry>
        </mxCell>
        <mxCell id="oLVpAVas0B8bVnGjlrTH-4" style="edgeStyle=orthogonalEdgeStyle;rounded=0;orthogonalLoop=1;jettySize=auto;html=1;" edge="1" parent="1" source="oLVpAVas0B8bVnGjlrTH-3">
          <mxGeometry relative="1" as="geometry">
            <mxPoint x="410" y="290" as="targetPoint" />
            <Array as="points">
              <mxPoint x="410" y="270" />
            </Array>
          </mxGeometry>
        </mxCell>
        <mxCell id="oLVpAVas0B8bVnGjlrTH-3" value="&lt;div&gt;&lt;font style=&quot;font-size: 9px;&quot;&gt;Slit (width = &lt;i&gt;d&lt;/i&gt;)&lt;br&gt;&lt;/font&gt;&lt;/div&gt;" style="text;html=1;strokeColor=none;fillColor=none;align=center;verticalAlign=middle;whiteSpace=wrap;rounded=0;" vertex="1" parent="1">
          <mxGeometry x="440" y="260" width="70" height="20" as="geometry" />
        </mxCell>
        <mxCell id="oLVpAVas0B8bVnGjlrTH-5" value="" style="triangle;whiteSpace=wrap;html=1;rotation=90;" vertex="1" parent="1">
          <mxGeometry x="403" y="340" width="22.5" height="20" as="geometry" />
        </mxCell>
        <mxCell id="oLVpAVas0B8bVnGjlrTH-7" style="edgeStyle=orthogonalEdgeStyle;rounded=0;orthogonalLoop=1;jettySize=auto;html=1;" edge="1" parent="1" source="oLVpAVas0B8bVnGjlrTH-6">
          <mxGeometry relative="1" as="geometry">
            <mxPoint x="430" y="350" as="targetPoint" />
          </mxGeometry>
        </mxCell>
        <mxCell id="oLVpAVas0B8bVnGjlrTH-6" value="&lt;font style=&quot;font-size: 9px;&quot;&gt;Light source&lt;/font&gt;" style="text;html=1;strokeColor=none;fillColor=none;align=center;verticalAlign=middle;whiteSpace=wrap;rounded=0;" vertex="1" parent="1">
          <mxGeometry x="450" y="340" width="70" height="20" as="geometry" />
        </mxCell>
        <mxCell id="oLVpAVas0B8bVnGjlrTH-9" value="" style="endArrow=none;dashed=1;html=1;rounded=0;" edge="1" parent="1">
          <mxGeometry width="50" height="50" relative="1" as="geometry">
            <mxPoint x="414.15000000000003" y="325" as="sourcePoint" />
            <mxPoint x="414" y="220" as="targetPoint" />
          </mxGeometry>
        </mxCell>
        <mxCell id="oLVpAVas0B8bVnGjlrTH-12" value="" style="endArrow=none;dashed=1;html=1;rounded=0;" edge="1" parent="1">
          <mxGeometry width="50" height="50" relative="1" as="geometry">
            <mxPoint x="420" y="325" as="sourcePoint" />
            <mxPoint x="430" y="220" as="targetPoint" />
          </mxGeometry>
        </mxCell>
        <mxCell id="oLVpAVas0B8bVnGjlrTH-13" value="" style="endArrow=none;dashed=1;html=1;rounded=0;" edge="1" parent="1">
          <mxGeometry width="50" height="50" relative="1" as="geometry">
            <mxPoint x="409.25" y="325" as="sourcePoint" />
            <mxPoint x="400" y="220" as="targetPoint" />
          </mxGeometry>
        </mxCell>
        <mxCell id="oLVpAVas0B8bVnGjlrTH-14" value="" style="rounded=1;whiteSpace=wrap;html=1;" vertex="1" parent="1">
          <mxGeometry x="324.25" y="210" width="180" height="10" as="geometry" />
        </mxCell>
        <mxCell id="oLVpAVas0B8bVnGjlrTH-15" value="&lt;font style=&quot;font-size: 9px;&quot;&gt;Screen&lt;/font&gt;" style="text;html=1;strokeColor=none;fillColor=none;align=center;verticalAlign=middle;whiteSpace=wrap;rounded=0;" vertex="1" parent="1">
          <mxGeometry x="510" y="205" width="50" height="20" as="geometry" />
        </mxCell>
        <mxCell id="oLVpAVas0B8bVnGjlrTH-17" value="" style="endArrow=none;html=1;rounded=0;" edge="1" parent="1">
          <mxGeometry width="50" height="50" relative="1" as="geometry">
            <mxPoint x="414.17" y="210" as="sourcePoint" />
            <mxPoint x="414.17" y="200" as="targetPoint" />
          </mxGeometry>
        </mxCell>
        <mxCell id="oLVpAVas0B8bVnGjlrTH-18" value="" style="endArrow=none;html=1;rounded=0;" edge="1" parent="1">
          <mxGeometry width="50" height="50" relative="1" as="geometry">
            <mxPoint x="430" y="210" as="sourcePoint" />
            <mxPoint x="430" y="200" as="targetPoint" />
          </mxGeometry>
        </mxCell>
        <mxCell id="oLVpAVas0B8bVnGjlrTH-19" value="" style="endArrow=none;html=1;rounded=0;" edge="1" parent="1">
          <mxGeometry width="50" height="50" relative="1" as="geometry">
            <mxPoint x="400" y="210" as="sourcePoint" />
            <mxPoint x="400" y="200" as="targetPoint" />
          </mxGeometry>
        </mxCell>
        <mxCell id="oLVpAVas0B8bVnGjlrTH-20" value="&lt;font style=&quot;font-size: 9px;&quot;&gt;&lt;i&gt;m&lt;/i&gt; = 0&lt;/font&gt;" style="text;html=1;strokeColor=none;fillColor=none;align=center;verticalAlign=middle;whiteSpace=wrap;rounded=0;rotation=-90;" vertex="1" parent="1">
          <mxGeometry x="394.25" y="180" width="40" height="10" as="geometry" />
        </mxCell>
        <mxCell id="oLVpAVas0B8bVnGjlrTH-21" value="&lt;font style=&quot;font-size: 9px;&quot;&gt;&lt;i&gt;m&lt;/i&gt; = 1&lt;br&gt;&lt;/font&gt;" style="text;html=1;strokeColor=none;fillColor=none;align=center;verticalAlign=middle;whiteSpace=wrap;rounded=0;rotation=-90;" vertex="1" parent="1">
          <mxGeometry x="380" y="180" width="40" height="10" as="geometry" />
        </mxCell>
        <mxCell id="oLVpAVas0B8bVnGjlrTH-22" value="&lt;font style=&quot;font-size: 9px;&quot;&gt;&lt;i&gt;m&lt;/i&gt; = 1&lt;br&gt;&lt;/font&gt;" style="text;html=1;strokeColor=none;fillColor=none;align=center;verticalAlign=middle;whiteSpace=wrap;rounded=0;rotation=-90;" vertex="1" parent="1">
          <mxGeometry x="410" y="180" width="40" height="10" as="geometry" />
        </mxCell>
        <mxCell id="oLVpAVas0B8bVnGjlrTH-23" value="" style="endArrow=none;html=1;rounded=0;" edge="1" parent="1">
          <mxGeometry width="50" height="50" relative="1" as="geometry">
            <mxPoint x="445" y="210" as="sourcePoint" />
            <mxPoint x="445" y="200" as="targetPoint" />
          </mxGeometry>
        </mxCell>
        <mxCell id="oLVpAVas0B8bVnGjlrTH-24" value="&lt;font style=&quot;font-size: 9px;&quot;&gt;&lt;i&gt;m&lt;/i&gt; = 2&lt;br&gt;&lt;/font&gt;" style="text;html=1;strokeColor=none;fillColor=none;align=center;verticalAlign=middle;whiteSpace=wrap;rounded=0;rotation=-90;" vertex="1" parent="1">
          <mxGeometry x="425" y="180" width="40" height="10" as="geometry" />
        </mxCell>
        <mxCell id="oLVpAVas0B8bVnGjlrTH-25" value="&lt;font style=&quot;font-size: 9px;&quot;&gt;&lt;i&gt;m&lt;/i&gt; = 2&lt;br&gt;&lt;/font&gt;" style="text;html=1;strokeColor=none;fillColor=none;align=center;verticalAlign=middle;whiteSpace=wrap;rounded=0;rotation=-90;" vertex="1" parent="1">
          <mxGeometry x="363" y="180" width="40" height="10" as="geometry" />
        </mxCell>
        <mxCell id="oLVpAVas0B8bVnGjlrTH-26" value="" style="endArrow=none;html=1;rounded=0;" edge="1" parent="1">
          <mxGeometry width="50" height="50" relative="1" as="geometry">
            <mxPoint x="383" y="210" as="sourcePoint" />
            <mxPoint x="383" y="200" as="targetPoint" />
          </mxGeometry>
        </mxCell>
        <mxCell id="oLVpAVas0B8bVnGjlrTH-29" value="" style="endArrow=none;html=1;rounded=0;startSize=6;" edge="1" parent="1">
          <mxGeometry width="50" height="50" relative="1" as="geometry">
            <mxPoint x="414" y="225" as="sourcePoint" />
            <mxPoint x="430" y="225" as="targetPoint" />
          </mxGeometry>
        </mxCell>
        <mxCell id="oLVpAVas0B8bVnGjlrTH-32" value="&lt;span lang=&quot;en&quot; class=&quot;ILfuVd&quot;&gt;&lt;span class=&quot;hgKElc&quot;&gt;Î»&lt;/span&gt;&lt;/span&gt;" style="text;html=1;strokeColor=none;fillColor=none;align=center;verticalAlign=middle;whiteSpace=wrap;rounded=0;" vertex="1" parent="1">
          <mxGeometry x="414" y="225" width="15.75" height="13" as="geometry" />
        </mxCell>
        <mxCell id="oLVpAVas0B8bVnGjlrTH-33" value="" style="endArrow=none;html=1;rounded=0;" edge="1" parent="1">
          <mxGeometry width="50" height="50" relative="1" as="geometry">
            <mxPoint x="343" y="286" as="sourcePoint" />
            <mxPoint x="343" y="220" as="targetPoint" />
          </mxGeometry>
        </mxCell>
        <mxCell id="oLVpAVas0B8bVnGjlrTH-34" value="D" style="edgeLabel;html=1;align=center;verticalAlign=middle;resizable=0;points=[];" vertex="1" connectable="0" parent="oLVpAVas0B8bVnGjlrTH-33">
          <mxGeometry x="-0.3411" y="-1" relative="1" as="geometry">
            <mxPoint y="-4" as="offset" />
          </mxGeometry>
        </mxCell>
      </root>
    </mxGraphModel>
  </diagram>
</mxfile>
